# Blender v3.2.2 OBJ File: ''
# www.blender.org
mtllib Pez.mtl
o Cube_Cube.001
v -1.000000 -0.803043 0.565604
v -1.000000 0.803043 0.565604
v -1.000000 -1.000000 -0.565604
v -1.000000 1.000000 -0.565604
v 1.000000 -0.803043 0.565604
v 1.000000 0.803043 0.565604
v 1.000000 -1.000000 -0.565604
v 1.000000 1.000000 -0.565604
v -1.000000 -1.000000 0.000000
v -1.000000 1.000000 0.000000
v 1.000000 -1.000000 0.000000
v 1.000000 1.000000 0.000000
v -1.389544 0.000000 0.837073
v -1.389544 0.000000 -0.837073
v 1.389544 0.000000 -0.837073
v 1.389544 0.000000 0.837073
v 1.770073 0.000000 0.000000
v -1.770073 0.000000 0.000000
v 3.045962 -0.963105 0.000000
v 1.603553 -0.040484 -0.000000
v 3.045962 1.036896 0.000000
vt 0.500000 0.125000
vt 0.625000 0.125000
vt 0.625000 0.250000
vt 0.500000 0.250000
vt 0.625000 0.500000
vt 0.500000 0.500000
vt 0.500000 0.625000
vt 0.625000 0.625000
vt 0.625000 0.750000
vt 0.500000 0.750000
vt 0.625000 1.000000
vt 0.500000 1.000000
vt 0.125000 0.625000
vt 0.375000 0.625000
vt 0.375000 0.750000
vt 0.125000 0.750000
vt 0.875000 0.625000
vt 0.875000 0.750000
vt 0.875000 0.500000
vt 0.125000 0.500000
vt 0.375000 0.500000
vt 0.500000 0.000000
vt 0.625000 0.000000
vt 0.375000 0.000000
vt 0.375000 0.125000
vt 0.375000 1.000000
vt 0.375000 0.250000
vt 0.000000 0.000000
vt 0.000000 0.000000
vt 0.000000 0.000000
vn -0.8294 0.5114 -0.2250
vn 0.0000 0.2620 -0.9651
vn 0.7845 0.5482 0.2898
vn 0.0000 0.3202 0.9473
vn 0.0000 -0.9444 0.3289
vn 0.0000 0.9444 0.3289
vn 0.0000 1.0000 0.0000
vn 0.0000 -1.0000 0.0000
vn 0.8294 0.5114 -0.2250
vn -0.7845 0.5482 0.2898
vn -0.7845 -0.5482 0.2898
vn 0.8294 -0.5114 -0.2250
vn 0.0000 -0.3202 0.9473
vn 0.7845 -0.5482 0.2898
vn 0.0000 -0.2620 -0.9651
vn -0.8294 -0.5114 -0.2250
vn 0.0000 0.0000 -1.0000
usemtl Material.001
s off
f 18/1/1 10/2/1 4/3/1 14/4/1
f 14/4/2 4/3/2 8/5/2 15/6/2
f 17/7/3 12/8/3 6/9/3 16/10/3
f 16/10/4 6/9/4 2/11/4 13/12/4
f 9/13/5 11/14/5 5/15/5 1/16/5
f 12/8/6 10/17/6 2/18/6 6/9/6
f 8/5/7 4/19/7 10/17/7 12/8/7
f 3/20/8 7/21/8 11/14/8 9/13/8
f 15/6/9 8/5/9 12/8/9 17/7/9
f 13/22/10 2/23/10 10/2/10 18/1/10
f 1/24/11 13/22/11 18/1/11 9/25/11
f 7/21/12 15/6/12 17/7/12 11/14/12
f 5/15/13 16/10/13 13/12/13 1/26/13
f 11/14/14 17/7/14 16/10/14 5/15/14
f 3/27/15 14/4/15 15/6/15 7/21/15
f 9/25/16 18/1/16 14/4/16 3/27/16
f 20/28/17 21/29/17 19/30/17
